<?xml version="1.0" encoding="utf-8"?>
<svg width="1000px" height="1000px" viewBox="0 0 1000 1000" version="1.1" xmlns:xlink="http://www.w3.org/1999/xlink" xmlns="http://www.w3.org/2000/svg">
  <desc>Created with Lunacy</desc>
  <defs>
    <rect width="1000" height="1000" id="artboard_1" />
    <clipPath id="clip_1">
      <use xlink:href="#artboard_1" clip-rule="evenodd" />
    </clipPath>
  </defs>
  <g id="awesome-piracy" clip-path="url(#clip_1)">
    <use xlink:href="#artboard_1" stroke="none" fill="#FFFFFF" fill-opacity="0" />
    <g id="poison">
      <g id="Group" transform="translate(0 500)">
        <g id="Group">
          <path d="M928.571 71.4286C928.571 31.9643 896.607 0 857.143 0C817.679 0 785.714 31.9643 785.714 71.4286C785.714 79.4643 787.357 87.0714 789.786 94.3215L500 223.107L210.214 94.3215C212.643 87.0714 214.286 79.4643 214.286 71.4286C214.286 31.9643 182.321 0 142.857 0C103.393 0 71.4286 31.9643 71.4286 71.4286C31.9643 71.4286 0 103.393 0 142.857C0 182.321 31.9643 214.286 71.4286 214.286C98.2143 214.286 121.321 199.357 133.536 177.5L368.071 281.75L276.393 322.5C264.179 300.643 241.071 285.714 214.286 285.714C174.821 285.714 142.857 317.679 142.857 357.143C142.857 396.607 174.821 428.571 214.286 428.571C214.286 468.036 246.25 500 285.714 500C325.179 500 357.143 468.036 357.143 428.571C357.143 420.536 355.5 412.929 353.071 405.679L866.5 177.5C878.679 199.357 901.786 214.286 928.571 214.286C968.036 214.286 1000 182.321 1000 142.857C1000 103.393 968.036 71.4286 928.571 71.4286L928.571 71.4286Z" id="Shape" fill="#000000" stroke="none" />
        </g>
      </g>
      <g id="Group" transform="translate(543.9642 785.7143)">
        <g id="Group">
          <path d="M241.75 0C214.964 0 191.857 14.9285 179.643 36.7857L131.929 15.5715L0 74.2143L102.964 119.964C100.536 127.214 98.8929 134.821 98.8929 142.857C98.8929 182.321 130.857 214.286 170.321 214.286C209.786 214.286 241.75 182.321 241.75 142.857C281.214 142.857 313.179 110.893 313.179 71.4286C313.179 31.9643 281.214 0 241.75 0L241.75 0Z" id="Shape" fill="#000000" stroke="none" />
        </g>
      </g>
      <g id="Group" transform="translate(214.2857 0)">
        <g id="Group">
          <path d="M285.714 0C127.929 0 0 127.929 0 285.714L0 426.036C0 449.929 11.9286 472.25 31.8214 485.464L107.143 535.714L107.143 607.143L178.571 607.143L178.571 535.714L250 535.714L250 607.143L321.429 607.143L321.429 535.714L392.857 535.714L392.857 607.143L464.286 607.143L464.286 535.714L539.607 485.5C559.5 472.25 571.429 449.929 571.429 426.071L571.429 285.714C571.429 127.929 443.5 0 285.714 0ZM71.4286 357.143C71.4286 396.571 103.429 428.571 142.857 428.571C182.321 428.571 214.286 396.571 214.286 357.143C214.286 317.679 182.321 285.714 142.857 285.714C103.429 285.714 71.4286 317.679 71.4286 357.143ZM357.143 357.143C357.143 396.571 389.143 428.571 428.571 428.571C468.036 428.571 500 396.571 500 357.143C500 317.679 468.036 285.714 428.571 285.714C389.143 285.714 357.143 317.679 357.143 357.143ZM250 464.286C250 424.821 266 392.857 285.714 392.857C305.429 392.857 321.429 424.821 321.429 464.286L250 464.286Z" id="Shape" fill="#000000" fill-rule="evenodd" stroke="none" />
        </g>
      </g>
    </g>
    <g id="awesome" transform="translate(214 282.9189)">
      <path d="M572 0L0.0977781 0L0 0L0 88.6844C0 128.773 38.6222 161.431 86.0444 161.431L176.489 161.431C223.911 161.431 262.533 128.773 262.533 88.6844L262.533 30.4089L309.467 30.4089L309.467 88.6844C309.467 128.773 348.089 161.431 395.511 161.431L485.956 161.431C533.378 161.431 572 128.773 572 88.6844L572 0L572 0Z" id="Shape" fill="#FC60A8" stroke="none" />
    </g>
  </g>
</svg>